<svg width="31" height="13" viewBox="0 0 31 13" fill="none" xmlns="http://www.w3.org/2000/svg">
<path d="M0 2C0 0.895431 0.895431 0 2 0H22.1428C22.5955 0 23.0349 0.153645 23.3891 0.435804L29.0368 4.9358C30.0418 5.7365 30.0418 7.2635 29.0368 8.0642L23.3891 12.5642C23.0349 12.8464 22.5955 13 22.1428 13H2C0.895431 13 0 12.1046 0 11V2Z" fill="#E24E5A"/>
<path d="M8.78516 9H7.24609L4.76172 4.67969H4.72656C4.73698 4.85938 4.74609 5.04036 4.75391 5.22266C4.76172 5.40495 4.76953 5.58724 4.77734 5.76953C4.78516 5.94922 4.79297 6.13021 4.80078 6.3125V9H3.71875V3.28906H5.24609L7.72656 7.56641H7.75391C7.7487 7.38932 7.74219 7.21354 7.73438 7.03906C7.72656 6.86458 7.71875 6.6901 7.71094 6.51562C7.70573 6.34115 7.70052 6.16667 7.69531 5.99219V3.28906H8.78516V9ZM13.5156 9H10.2266V3.28906H13.5156V4.28125H11.4375V5.53516H13.3711V6.52734H11.4375V8H13.5156V9ZM21.7266 3.28906L20.2734 9H18.8945L18.1211 6C18.1055 5.94271 18.0846 5.85547 18.0586 5.73828C18.0326 5.62109 18.0052 5.49349 17.9766 5.35547C17.9479 5.21484 17.9219 5.08333 17.8984 4.96094C17.8776 4.83594 17.8633 4.73698 17.8555 4.66406C17.8477 4.73698 17.832 4.83464 17.8086 4.95703C17.7878 5.07943 17.763 5.20964 17.7344 5.34766C17.7083 5.48568 17.6823 5.61458 17.6562 5.73438C17.6302 5.85417 17.6094 5.94531 17.5938 6.00781L16.8242 9H15.4492L13.9922 3.28906H15.1836L15.9141 6.40625C15.9349 6.5 15.9583 6.61198 15.9844 6.74219C16.013 6.8724 16.0404 7.00911 16.0664 7.15234C16.0951 7.29297 16.1198 7.42969 16.1406 7.5625C16.1641 7.69271 16.181 7.80599 16.1914 7.90234C16.2044 7.80339 16.2214 7.6888 16.2422 7.55859C16.263 7.42578 16.2852 7.29167 16.3086 7.15625C16.3346 7.01823 16.3607 6.89062 16.3867 6.77344C16.4128 6.65625 16.4362 6.5612 16.457 6.48828L17.2891 3.28906H18.4336L19.2656 6.48828C19.2839 6.55859 19.3047 6.65365 19.3281 6.77344C19.3542 6.89062 19.3802 7.01823 19.4062 7.15625C19.4323 7.29427 19.4557 7.42969 19.4766 7.5625C19.5 7.69271 19.5169 7.80599 19.5273 7.90234C19.5456 7.77214 19.5703 7.61458 19.6016 7.42969C19.6354 7.24219 19.6706 7.05599 19.707 6.87109C19.7461 6.6862 19.7799 6.53125 19.8086 6.40625L20.5352 3.28906H21.7266Z" fill="white"/>
</svg>
